<?xml version="1.0" encoding="UTF-8"?><svg id="_イヤー_2" xmlns="http://www.w3.org/2000/svg" viewBox="0 0 447 136.77"><defs><style>.cls-1{fill:#f5a200;}.cls-2{fill:#f2c667;}.cls-3{fill:#f08300;}</style></defs><g id="_イヤー_1-2"><g><path class="cls-3" d="M173.79,112.07c0,1.16,1.03,6.2,1.03,7.26,0,4.55-5.89,5.23-8.67,5.23-6.71,0-8.26-2.23-9.29-6.98-1.86,2.04-6.72,6.98-18.38,6.98-19.82,0-21.05-14.44-21.05-18.69,0-15.31,14.96-17.24,25.08-18.6,11.55-1.46,14.24-1.85,14.24-6.2,0-2.91-2.37-6.01-9.39-6.01-7.64,0-8.98,2.42-11.98,7.46-.63,1.06-3,3.19-7.64,3.19-2.28,0-8.46-.48-8.46-6.1,0-3.77,3.81-17.43,28.17-17.43,5.89,0,26.33,.58,26.33,19.27v30.61Zm-17.24-16.57c-3,1.26-3.72,1.36-9.6,2.42-6.61,1.16-11.76,2.32-11.76,8.32,0,6.59,6.29,6.59,7.73,6.59,5.48,0,13.64-3.38,13.64-12.1v-5.23Z"/><path class="cls-3" d="M227.65,67.33c1.27-3,3.5-5.14,7.52-5.14,4.87,0,9.75,3.19,9.75,6.87,0,1.26-.21,2.81-.74,3.97l-23.96,50.27c-2.55,5.33-6.46,13.46-21.09,13.46-2.66,0-9.34,0-9.34-7.17,0-6.2,5.29-6.29,6.99-6.39,6.05-.2,7.63-1.94,8.6-4.27l1.47-3.49-23-42.23c-.11-.29-.97-2.04-.97-3.58,0-3.97,4.78-7.46,10.07-7.46,2.34,0,5.2,.78,7.22,4.85l14.72,29.35,12.74-29.05Z"/><path class="cls-1" d="M313.33,93.37c0,15.6-9.59,31.19-31.58,31.19s-31.69-15.89-31.69-31.19,9.29-31.18,31.69-31.18,31.58,15.69,31.58,31.18m-45.51,0c0,7.55,3.72,17.54,13.93,17.54s13.84-9.49,13.84-17.54-3.83-17.53-13.84-17.53-13.93,10.17-13.93,17.53"/><path class="cls-1" d="M377.46,117.01c0,4.55-2.12,7.55-8.47,7.55-5.63,0-9.22-1.55-9.22-7.55v-29.45c0-3.01,0-11.72-9.01-11.72-6.69,0-11.66,4.94-11.66,12.11v29.06c0,3.1-.74,7.55-8.49,7.55-5.61,0-9.11-1.55-9.11-7.55v-47.27c0-3.1,.73-7.55,8.46-7.55,4.25,0,9.13,.87,9.13,7.07,2.76-2.43,8.05-7.07,17.59-7.07,11.02,0,20.77,5.91,20.77,21.99v32.83Z"/><path class="cls-1" d="M405.81,98.03c.52,8.62,6.18,13.18,13.21,13.18s8.87-3.1,10.12-5.23c1.64-3.1,2.78-5.23,8.15-5.23,2.89,0,8.76,.97,8.76,6.49,0,3.68-6.7,17.34-27.23,17.34-22.19,0-31.28-15.22-31.28-31.29,0-17.34,10.41-31.09,29.83-31.09,22.71,0,29.63,18.79,29.63,27.02,0,8.82-9.09,8.82-12.18,8.82h-29Zm19.19-11.62c1.66,0,3.31-.39,3.31-2.33,0-2.62-3.62-8.62-10.74-8.62-1.55,0-8.78,0-11.45,10.95h18.88Z"/><path class="cls-2" d="M68.89,.48C67.47,.17,66,0,64.49,0h-2.32s-.05,0-.08,0c-.01,0-.03,0-.04,0H20.61C9.23,0,0,9.23,0,20.61s9.23,20.61,20.61,20.61h43.47c3.29,.88,5.72,3.87,5.72,7.43,0,4.25-3.45,7.71-7.71,7.71-.19,0-.34-.09-.53-.11v.14c-.82-.05-1.66-.09-2.56-.09H20.61C9.23,56.31,0,65.53,0,76.91s9.23,20.61,20.61,20.61H59.01c1.03,0,2.02-.09,3-.22,.03,0,.06,0,.08,0,26.87,0,48.66-21.78,48.66-48.66C110.75,24.09,92.54,3.79,68.89,.48Z"/><path class="cls-3" d="M41.23,76.92v28.59c0,11.38-9.23,20.61-20.61,20.61S0,116.89,0,105.5v-28.59C0,65.53,9.23,56.3,20.61,56.3s20.61,9.23,20.61,20.61"/></g></g></svg>